<?xml version="1.0" standalone="no"?>
<!DOCTYPE svg PUBLIC "-//W3C//DTD SVG 20010904//EN"
 "http://www.w3.org/TR/2001/REC-SVG-20010904/DTD/svg10.dtd">
<svg version="1.0" xmlns="http://www.w3.org/2000/svg"
 width="400.000000pt" height="400.000000pt" viewBox="0 0 400.000000 400.000000"
 preserveAspectRatio="xMidYMid meet">
<metadata>
Created by potrace 1.15, written by Peter Selinger 2001-2017
</metadata>
<g transform="translate(0.000000,400.000000) scale(0.100000,-0.100000)"
fill="#000000" stroke="none">
<path d="M1987 3803 c-4 -3 -7 -16 -7 -27 0 -12 -7 -31 -15 -42 -8 -12 -16
-34 -19 -49 -3 -16 -10 -33 -16 -39 -5 -5 -10 -17 -10 -26 0 -8 -9 -32 -20
-53 -11 -20 -20 -44 -20 -53 0 -8 -7 -22 -15 -30 -8 -9 -15 -25 -15 -37 0 -12
-7 -31 -15 -41 -8 -11 -15 -30 -15 -42 0 -12 -7 -27 -15 -34 -8 -7 -15 -23
-15 -35 0 -12 -7 -28 -15 -35 -8 -7 -15 -23 -15 -35 0 -12 -7 -28 -15 -35 -8
-7 -15 -23 -15 -35 0 -12 -7 -28 -15 -35 -8 -7 -15 -23 -15 -35 0 -12 -7 -28
-15 -35 -8 -7 -15 -19 -15 -26 0 -8 -9 -31 -20 -51 -11 -21 -20 -46 -20 -55 0
-10 -4 -18 -9 -18 -5 0 -12 -16 -15 -35 -4 -19 -11 -35 -16 -35 -49 0 91 -154
255 -280 44 -34 82 -66 83 -71 2 -5 10 -9 17 -9 7 0 24 -15 38 -32 39 -52 75
-88 87 -88 19 0 57 42 43 47 -17 6 -16 23 2 43 13 14 12 19 -1 45 -14 27 -14
31 3 43 11 8 17 22 15 37 -2 17 3 25 18 30 16 5 19 10 11 18 -6 6 -11 19 -11
28 0 25 41 85 68 100 12 7 22 16 22 21 0 4 -51 8 -114 8 l-114 0 -25 30 c-30
35 -33 36 -40 10 -5 -20 -32 -26 -55 -12 -16 10 -27 72 -19 104 7 25 73 98 89
98 5 0 22 10 38 22 27 20 29 23 14 39 -10 11 -12 19 -5 24 6 3 11 17 11 31 0
15 6 24 15 24 8 0 15 4 15 8 0 11 66 42 90 42 10 0 23 -7 28 -17 9 -14 11 -14
21 5 8 16 21 22 43 22 25 0 29 3 20 12 -7 7 -12 20 -12 30 0 10 -7 21 -15 24
-9 4 -15 19 -15 35 0 17 -6 32 -15 35 -9 4 -15 19 -15 35 0 17 -6 32 -15 35
-9 4 -15 19 -15 35 0 17 -6 32 -15 35 -8 4 -15 18 -15 33 0 15 -7 36 -15 47
-8 10 -15 26 -15 34 0 8 -7 28 -15 44 -8 15 -15 36 -15 45 0 9 -7 29 -15 45
-8 15 -15 39 -15 51 0 13 -7 26 -16 29 -19 7 -19 7 -27 -1z"/>
<path d="M2275 3640 c-3 -6 5 -14 19 -20 19 -7 25 -17 28 -47 l3 -37 70 0 70
0 3 57 3 57 -95 0 c-53 0 -98 -4 -101 -10z"/>
<path d="M2121 3005 c-18 -8 -42 -15 -53 -15 -41 0 -138 -74 -138 -105 0 -2
22 9 49 25 26 17 61 30 76 30 16 0 43 5 60 11 46 17 122 3 152 -27 13 -13 29
-22 34 -18 13 8 -30 50 -56 56 -13 2 -19 11 -18 25 2 16 -5 22 -29 27 -39 8
-37 8 -77 -9z"/>
<path d="M1498 2639 c-10 -5 -18 -19 -18 -29 0 -15 7 -20 29 -20 16 0 31 -6
35 -15 3 -8 17 -15 31 -15 21 0 25 -5 25 -30 0 -37 -18 -39 -50 -5 -13 14 -34
25 -46 25 -13 0 -26 5 -29 10 -11 18 -20 11 -31 -23 -9 -32 -8 -35 19 -50 16
-10 39 -17 52 -17 29 0 55 -24 55 -51 0 -23 -23 -25 -40 -4 -7 8 -25 15 -41
15 -15 0 -32 7 -37 16 -12 21 -42 15 -55 -11 -6 -11 -14 -27 -19 -35 -4 -8
-11 -22 -14 -30 -3 -8 -9 -22 -14 -30 -19 -33 -90 -178 -90 -185 0 -3 -7 -13
-15 -21 -20 -20 -19 -54 2 -69 25 -18 9 -49 -21 -41 -16 4 -30 0 -41 -10 -23
-23 -2 -44 46 -44 30 0 42 -5 55 -26 22 -33 6 -53 -28 -36 -13 6 -36 13 -53
15 -16 2 -38 8 -47 12 -15 6 -18 2 -18 -24 0 -29 2 -31 39 -31 39 0 141 -44
141 -61 0 -12 -57 -11 -100 1 -55 16 -131 15 -141 -1 -14 -23 -11 -29 21 -36
17 -3 35 -14 41 -24 8 -16 22 -19 80 -19 39 0 85 -7 106 -15 19 -8 44 -15 54
-15 11 0 19 -5 19 -11 0 -12 -19 -11 -175 16 -170 30 -171 30 -200 1 -37 -37
-29 -60 20 -66 22 -3 47 -10 55 -15 8 -6 93 -12 189 -15 130 -4 175 -8 179
-18 6 -18 -360 -11 -437 8 -52 13 -55 13 -73 -10 -10 -13 -15 -26 -11 -30 47
-37 324 -68 452 -50 84 11 161 6 161 -11 0 -10 -14 -12 -160 -15 -315 -7 -406
-3 -462 21 -13 5 -20 1 -27 -18 -5 -14 -15 -28 -20 -32 -16 -10 -13 -35 4 -35
8 0 24 -6 35 -12 16 -10 24 -10 40 0 27 17 71 15 110 -5 50 -24 387 -24 405 1
15 19 79 23 73 4 -3 -7 -18 -14 -36 -16 -17 -2 -36 -10 -42 -18 -7 -8 -24 -14
-38 -14 -14 0 -68 -8 -120 -17 -81 -14 -106 -15 -190 -4 -133 18 -144 18 -149
4 -3 -8 4 -13 15 -13 11 0 25 -7 32 -15 7 -8 20 -15 29 -15 9 0 27 -7 40 -16
32 -23 272 -23 316 0 17 9 44 16 62 16 17 0 46 8 65 17 74 37 83 41 93 40 11
-2 54 79 54 104 1 9 8 22 16 29 8 7 15 17 15 22 0 6 14 28 31 49 23 30 28 43
20 53 -8 10 -5 18 13 35 15 14 26 19 31 12 3 -6 10 -11 16 -11 15 0 10 36 -6
50 -14 11 -14 16 -1 35 12 19 12 23 -1 31 -14 8 -14 13 -2 32 12 20 12 24 -4
33 -16 10 -16 12 4 41 22 30 22 31 3 45 -16 11 -17 17 -6 34 16 25 8 39 -24
39 -30 0 -32 17 -2 22 13 2 24 11 26 22 4 17 -2 18 -77 14 -82 -5 -109 1 -97
21 4 7 39 11 86 11 76 0 80 1 86 24 8 35 -2 46 -35 40 -16 -3 -31 -1 -35 4 -9
15 29 25 63 17 17 -3 32 -2 36 4 3 6 39 11 80 11 72 0 75 1 90 30 28 54 20 84
-38 142 -30 29 -58 60 -63 69 -5 9 -47 35 -94 58 -47 23 -119 66 -160 95 -78
55 -132 73 -162 55z"/>
<path d="M2484 2128 c-9 -13 -7 -389 2 -397 2 -3 56 -7 119 -9 120 -5 127 -2
105 38 -9 17 -19 19 -79 15 -52 -3 -72 -1 -81 10 -20 24 -2 37 40 30 23 -4 47
-2 61 6 19 10 25 9 36 -6 12 -17 14 -17 31 -2 21 19 42 22 42 7 0 -14 53 -13
68 2 9 9 16 8 30 -5 31 -29 89 -17 76 16 -3 9 -17 23 -30 32 -20 13 -22 18
-13 34 17 26 -23 80 -55 74 -16 -3 -32 4 -48 20 l-25 25 24 24 c15 16 21 30
17 41 -9 24 -24 21 -24 -4 0 -18 -4 -16 -34 15 l-33 36 -96 0 c-52 0 -102 3
-110 6 -8 3 -19 -1 -23 -8z"/>
<path d="M1884 2094 c-18 -43 -18 -125 0 -150 16 -20 21 -15 28 31 7 46 23 5
23 -60 0 -71 9 -100 26 -89 6 3 75 7 154 7 134 2 145 3 167 25 25 23 48 29 48
12 0 -22 -24 -57 -53 -75 -49 -31 -47 -52 5 -60 24 -3 68 -5 98 -3 l55 3 3
175 c1 96 0 185 -3 198 l-6 23 -265 -2 -266 -1 -14 -34z"/>
<path d="M2765 1770 c-15 -24 -35 -148 -35 -216 0 -56 3 -73 16 -78 9 -3 81
-6 160 -6 l144 0 10 26 c21 53 12 103 -32 185 -45 82 -59 95 -86 80 -11 -6
-26 -4 -46 6 -26 14 -33 14 -61 0 -29 -14 -34 -14 -47 0 -12 11 -18 12 -23 3z"/>
<path d="M2440 1550 c-13 -50 -42 -80 -75 -80 -31 0 -31 -13 -5 -80 11 -28 20
-62 20 -75 0 -33 11 -37 44 -16 31 21 59 17 95 -11 25 -19 51 -24 51 -9 0 5
-5 32 -12 61 -11 46 -10 52 8 64 57 40 69 55 54 66 -8 5 -34 10 -57 10 -45 0
-50 4 -74 64 -22 54 -36 55 -49 6z"/>
<path d="M3100 1401 l0 -100 86 -56 c47 -31 88 -54 92 -51 15 15 -61 116 -87
116 -9 0 -27 12 -40 25 -17 19 -19 25 -8 25 8 0 17 -5 19 -12 2 -6 11 -9 20
-5 19 7 14 40 -8 58 -8 6 -14 19 -14 29 0 10 -7 23 -15 30 -8 7 -15 19 -15 26
0 8 -7 14 -15 14 -12 0 -15 -18 -15 -99z"/>
<path d="M2735 1408 c-2 -7 -6 -36 -9 -65 -4 -28 -13 -64 -21 -80 -19 -36 -19
-53 0 -53 8 0 15 6 15 13 0 42 152 147 213 147 37 0 70 -60 71 -127 0 -65 22
-72 29 -10 2 23 10 68 18 100 13 55 12 60 -6 73 -26 19 -304 20 -310 2z"/>
<path d="M824 1358 c-16 -29 -34 -62 -41 -73 -6 -11 -25 -47 -42 -80 -17 -33
-39 -73 -49 -90 -10 -16 -38 -66 -62 -110 -24 -44 -52 -93 -62 -110 -10 -16
-20 -37 -24 -45 -3 -8 -10 -22 -15 -30 -5 -8 -17 -31 -27 -50 -32 -60 -122
-224 -132 -240 -6 -8 -14 -24 -19 -36 -5 -11 -27 -50 -48 -85 -22 -35 -43 -71
-47 -79 -4 -8 -13 -26 -21 -40 -28 -49 10 -42 110 20 17 10 50 30 75 43 25 14
61 34 80 45 45 27 369 188 394 196 18 6 18 7 2 25 -23 25 -7 35 42 26 27 -4
55 0 95 15 65 24 75 35 55 58 -16 19 -50 103 -44 109 7 8 49 -21 94 -64 24
-24 48 -43 52 -43 4 0 21 7 36 15 16 8 36 15 45 15 8 0 19 4 25 10 5 5 30 14
54 19 61 13 126 30 180 46 25 8 56 15 70 17 24 3 25 5 22 77 -1 41 -4 76 -6
79 -3 2 -14 -2 -26 -8 -17 -9 -19 -14 -9 -26 29 -36 -39 -27 -96 12 -21 14
-50 24 -70 24 -19 0 -37 5 -40 10 -3 6 -15 10 -27 10 -11 0 -35 16 -52 35 -18
19 -41 35 -51 35 -10 0 -38 9 -62 21 -35 17 -42 25 -38 40 5 14 0 22 -19 29
-48 18 -31 34 27 24 112 -17 312 -3 341 26 5 5 16 10 24 10 8 0 28 6 45 14 18
8 40 16 50 20 9 3 17 15 17 26 0 17 -4 19 -27 14 -16 -4 -38 -13 -50 -20 -13
-8 -44 -17 -70 -21 -27 -3 -52 -9 -58 -13 -5 -4 -79 -10 -164 -13 -85 -4 -159
-11 -165 -17 -26 -26 -113 12 -108 47 2 13 -9 32 -29 49 -17 16 -44 41 -59 57
-15 15 -32 27 -37 27 -6 0 -23 -24 -39 -52z"/>
<path d="M2845 1232 c-87 -81 -214 -282 -215 -337 0 -40 14 -48 47 -28 47 29
161 160 191 220 15 30 34 68 43 85 13 25 14 39 6 65 -6 18 -15 33 -21 33 -6 0
-29 -17 -51 -38z"/>
<path d="M1566 1225 c-11 -8 -31 -15 -44 -15 -13 0 -30 -7 -38 -15 -9 -8 -26
-15 -38 -15 -13 0 -40 -7 -59 -15 -20 -8 -53 -15 -74 -16 -21 0 -46 -4 -56 -8
-15 -5 -11 -11 25 -28 37 -18 51 -20 98 -12 30 4 78 11 105 15 28 4 57 12 65
19 8 7 26 15 40 17 19 2 26 11 31 38 4 19 5 38 3 42 -8 13 -37 9 -58 -7z"/>
<path d="M3080 1232 c0 -25 94 -104 172 -146 48 -25 90 -46 93 -46 3 0 5 11 5
24 0 30 -45 86 -70 86 -10 0 -23 7 -30 15 -7 8 -20 15 -30 15 -10 0 -23 7 -30
15 -7 8 -18 15 -25 15 -7 0 -18 7 -25 15 -13 16 -60 21 -60 7z"/>
<path d="M2580 1078 c-19 -16 -46 -39 -59 -50 -25 -19 -39 -74 -40 -165 -1
-34 3 -43 20 -48 30 -10 39 9 39 80 0 46 6 70 25 100 67 111 71 133 15 83z"/>
<path d="M3154 975 c-3 -8 3 -30 15 -48 12 -19 21 -41 21 -50 0 -9 6 -22 13
-29 8 -7 19 -23 26 -36 10 -20 9 -23 -14 -32 -26 -10 -33 -34 -14 -46 6 -3 17
-21 25 -38 14 -30 19 -40 42 -81 16 -28 39 -77 45 -96 3 -9 31 -30 62 -47 l57
-31 40 25 c23 15 50 27 62 29 36 5 50 14 68 45 19 33 17 39 -84 217 -50 89
-193 200 -269 209 -24 3 -45 9 -47 15 -6 15 -42 10 -48 -6z"/>
</g>
</svg>
