<?xml version="1.0" standalone="no"?>
<!DOCTYPE svg PUBLIC "-//W3C//DTD SVG 20010904//EN"
 "http://www.w3.org/TR/2001/REC-SVG-20010904/DTD/svg10.dtd">
<svg version="1.0" xmlns="http://www.w3.org/2000/svg"
 width="256.000000pt" height="256.000000pt" viewBox="0 0 256.000000 256.000000"
 preserveAspectRatio="xMidYMid meet">
<metadata>
Created by potrace 1.15, written by Peter Selinger 2001-2017
</metadata>
<g transform="translate(0.000000,256.000000) scale(0.100000,-0.100000)"
fill="#000000" stroke="none">
<path d="M1185 2343 c-48 -120 -117 -282 -152 -361 -34 -79 -63 -149 -63 -155
0 -15 111 -125 198 -196 35 -28 60 -51 57 -51 -15 0 -130 64 -205 114 -46 31
-86 56 -90 56 -4 0 -26 -42 -50 -92 -83 -181 -366 -714 -712 -1341 -94 -170
-168 -311 -164 -314 3 -3 52 21 108 53 237 134 502 255 686 314 101 33 260 70
301 70 13 0 55 15 95 33 l71 34 130 -17 130 -18 -80 -2 c-93 -2 -160 -17 -86
-19 80 -2 245 -33 358 -67 209 -63 436 -165 706 -315 71 -39 131 -69 134 -66
3 3 -43 95 -103 205 l-107 200 -93 72 c-114 88 -186 139 -242 170 -23 13 -40
25 -38 27 6 6 185 -65 235 -93 24 -13 46 -23 48 -20 2 2 -96 192 -218 422
-311 587 -516 1010 -694 1437 -32 75 -61 137 -65 137 -4 0 -46 -98 -95 -217z
m194 -1094 c24 -17 41 -36 38 -42 -2 -7 -16 -53 -32 -104 l-28 -91 -118 -110
-119 -110 -96 -22 c-108 -25 -103 -27 -129 51 l-16 47 53 96 c43 78 68 110
140 176 73 67 99 85 165 109 43 17 83 30 89 30 6 1 30 -13 53 -30z m171 -131
c103 -84 105 -81 -56 -91 l-101 -7 26 85 c14 47 29 85 34 85 5 0 48 -33 97
-72z m106 -132 c-3 -13 -16 -42 -29 -64 l-22 -40 -89 53 -89 54 34 5 c19 3 59
7 89 9 30 2 68 4 84 5 25 2 28 -1 22 -22z m-257 -147 c18 -71 31 -132 28 -135
-2 -3 -64 14 -136 38 l-131 42 97 92 c54 51 100 93 103 93 3 1 20 -58 39 -130z
m108 64 l81 -49 -26 -35 c-38 -51 -93 -112 -96 -108 -2 2 -15 51 -30 109 -15
58 -30 114 -33 124 -7 24 1 21 104 -41z m124 -243 c15 -82 21 -136 15 -133 -6
4 -46 38 -88 77 l-78 69 44 47 c24 25 49 56 55 69 7 12 16 20 19 16 4 -3 19
-69 33 -145z m-564 -30 c-22 -71 -42 -129 -43 -127 -1 1 -22 50 -47 109 l-45
107 57 11 c47 10 113 26 117 29 1 1 -17 -57 -39 -129z m229 77 l131 -42 -42
-37 c-44 -38 -114 -83 -119 -77 -6 9 -106 199 -103 199 1 0 61 -19 133 -43z
m-74 -185 c-18 -13 -134 -52 -158 -52 -7 0 -11 6 -9 13 2 6 20 65 40 131 l37
119 53 -99 c49 -90 52 -100 37 -112z m348 28 c60 -56 63 -60 35 -55 -46 8
-267 35 -284 35 -8 0 5 13 30 29 24 16 57 43 73 60 l29 30 26 -19 c14 -11 55
-47 91 -80z"/>
</g>
</svg>
